<svg id="icons" xmlns="http://www.w3.org/2000/svg" viewBox="0 0 340 340"><path d="M242.325,82.325A72.325,72.325,0,0,1,170,154.65C74.259,151.341,74.284,13.294,170,10A72.325,72.325,0,0,1,242.325,82.325Z" style="fill:#ffd071"/><path d="M227.947,228.04c-6.732-71.356-109.185-71.312-115.894,0L104.738,330H235.262Z" style="fill:#ffd071"/><path d="M135.492,85.857c-6.3,0-10.725,6.741-8.426,12.989,3.76,10.217,12.242,23.466,31.293,28.043a49.842,49.842,0,0,0,23.282,0c19.051-4.577,27.533-17.826,31.293-28.043,2.3-6.248-2.128-12.989-8.426-12.989Z" style="fill:#fff"/><path d="M170,158.65A76.412,76.412,0,0,1,93.675,82.325c3.586-101.017,149.079-100.991,152.65,0A76.412,76.412,0,0,1,170,158.65ZM170,14a68.4,68.4,0,0,0-68.325,68.325c3.21,90.429,133.454,90.406,136.65,0A68.4,68.4,0,0,0,170,14Z" style="fill:#383a49"/><path d="M235.262,334H104.738a4.026,4.026,0,0,1-3.99-4.286l7.315-101.96a62.1,62.1,0,0,1,123.874,0l7.315,101.96A4.026,4.026,0,0,1,235.262,334Zm-126.227-8h121.93l-7.008-97.674h0c-6.444-66.395-101.486-66.368-107.914,0Z" style="fill:#383a49"/><path d="M170,132.261c-24,.515-41.868-16.37-46.687-32.035a13.913,13.913,0,0,1,1.635-12.763,12.749,12.749,0,0,1,10.544-5.606h69.016c9.037-.247,15.53,10.107,12.18,18.37C211.848,115.906,194.012,132.77,170,132.261Zm-34.508-42.4c-3.621-.06-6.021,4.351-4.672,7.607,5.666,17.95,26.86,31.224,49.886,25.535,17.3-4.155,25.032-16.179,28.474-25.535,1.344-3.255-1.044-7.669-4.672-7.607Z" style="fill:#383a49"/><path d="M147.912,62.514a4,4,0,0,0,4-4v-2.99a4,4,0,0,0-8,0v2.99A4,4,0,0,0,147.912,62.514Z" style="fill:#383a49"/><path d="M192.088,62.514a4,4,0,0,0,4-4v-2.99a4,4,0,0,0-8,0v2.99A4,4,0,0,0,192.088,62.514Z" style="fill:#383a49"/></svg>