<?xml version="1.0" encoding="UTF-8"?>
<!DOCTYPE svg PUBLIC "-//W3C//DTD SVG 1.1//EN" "http://www.w3.org/Graphics/SVG/1.1/DTD/svg11.dtd">
<!-- Creator: CorelDRAW -->
<svg xmlns="http://www.w3.org/2000/svg" xml:space="preserve" width="2048px" height="2048px" style="shape-rendering:geometricPrecision; text-rendering:geometricPrecision; image-rendering:optimizeQuality; fill-rule:evenodd; clip-rule:evenodd"
viewBox="0 0 2048 2048"
 xmlns:xlink="http://www.w3.org/1999/xlink">
 <defs>
  <style type="text/css">
   <![CDATA[
    .fil1 {fill:none}
    .fil0 {fill:#424242}
    .fil3 {fill:white}
    .fil2 {fill:white;fill-rule:nonzero}
   ]]>
  </style>
 </defs>
 <rect class="fil0" width="2048" height="2048"/>
 <g id="Layer_x0020_1">
  <metadata id="CorelCorpID_0Corel-Layer"/>
  <rect class="fil1" width="2048" height="2048"/>
  <rect class="fil1" x="255.999" y="255.999" width="1536" height="1536"/>
  <rect class="fil1" x="255.999" y="255.999" width="1536" height="1536"/>
  <polygon class="fil2" points="681.504,819.962 681.504,1013.17 617.502,1013.17 617.502,819.962 "/>
  <polygon class="fil2" points="1365.51,819.962 1365.51,1013.17 1301.51,1013.17 1301.51,819.962 "/>
  <path class="fil2" d="M448 1235.94l0 -118.721c0,-31.4918 16.0866,-59.5252 42,-79.317 23.4768,-17.9303 55.3666,-29.0622 90.0001,-29.0622l888.002 0c34.6335,0 66.5233,11.1319 90.0001,29.0622 25.9134,19.7917 42,47.8252 42,79.317l0 118.748 -64.0016 0 0 -118.748c0,-10.5165 -6.41457,-20.6752 -16.748,-28.5673 -12.7713,-9.75473 -30.8835,-15.8102 -51.2504,-15.8102l-888.002 0c-20.3669,0 -38.4792,6.05552 -51.2504,15.8102 -10.3335,7.89213 -16.748,18.0508 -16.748,28.5673l0 118.721 -64.0016 0z"/>
  <polygon class="fil2" points="1056,1040.84 1056,1235.96 991.999,1235.96 991.999,1040.84 "/>
  <g id="_251987144">
   <path id="_251987384" class="fil3" d="M1120.37 768.001l447.29 0c4.01339,-88.3961 -26.6941,-164.04 -109.187,-211.674l-4.20473 -2.42008 -3.41811 3.51378c-28.2343,29.5937 -66.1725,45.9449 -106.872,45.9449 -40.6784,0 -78.6166,-16.3512 -106.851,-45.9449l-3.35551 -3.51378 -4.27796 2.42008c-82.4079,47.6658 -113.275,123.278 -109.123,211.674z"/>
   <path id="_251987168" class="fil3" d="M1344 573.168c-73.9879,0 -134.182,-60.2056 -134.182,-134.192 0,-74.0623 60.1937,-134.256 134.182,-134.256 73.9973,0 134.192,60.1937 134.192,134.182 0,73.9973 -60.1949,134.267 -134.192,134.267z"/>
  </g>
  <g id="_251988008">
   <path id="_251987312" class="fil3" d="M416.366 768.001l447.29 0c4.01339,-88.3961 -26.6941,-164.04 -109.187,-211.674l-4.20473 -2.42008 -3.41811 3.51378c-28.2343,29.5937 -66.1725,45.9449 -106.872,45.9449 -40.6784,0 -78.6166,-16.3512 -106.851,-45.9449l-3.35551 -3.51378 -4.27796 2.42008c-82.4079,47.6658 -113.275,123.278 -109.123,211.674z"/>
   <path id="_251987984" class="fil3" d="M639.995 573.168c-73.9879,0 -134.182,-60.2056 -134.182,-134.192 0,-74.0623 60.1937,-134.256 134.182,-134.256 73.9973,0 134.192,60.1937 134.192,134.182 0,73.9973 -60.1949,134.267 -134.192,134.267z"/>
  </g>
  <g id="_251993192">
   <path id="_251986640" class="fil3" d="M1344.37 1792l447.29 0c4.01339,-88.3961 -26.6941,-164.04 -109.187,-211.674l-4.20473 -2.42008 -3.41811 3.51378c-28.2343,29.5937 -66.1725,45.9449 -106.872,45.9449 -40.6784,0 -78.6166,-16.3512 -106.851,-45.9449l-3.35551 -3.51378 -4.27796 2.42008c-82.4079,47.6658 -113.275,123.278 -109.123,211.674z"/>
   <path id="_251993168" class="fil3" d="M1568 1597.17c-73.9879,0 -134.182,-60.2056 -134.182,-134.192 0,-74.0623 60.1937,-134.256 134.182,-134.256 73.9973,0 134.192,60.1937 134.192,134.182 0,73.9973 -60.1949,134.267 -134.192,134.267z"/>
  </g>
  <g id="_251992808">
   <path id="_251993024" class="fil3" d="M256.366 1792l447.29 0c4.01339,-88.3961 -26.6941,-164.04 -109.187,-211.674l-4.20473 -2.42008 -3.41811 3.51378c-28.2343,29.5937 -66.1725,45.9449 -106.872,45.9449 -40.6784,0 -78.6166,-16.3512 -106.851,-45.9449l-3.35551 -3.51378 -4.27796 2.42008c-82.4079,47.6658 -113.275,123.278 -109.123,211.674z"/>
   <path id="_251992784" class="fil3" d="M479.994 1597.17c-73.9879,0 -134.182,-60.2056 -134.182,-134.192 0,-74.0623 60.1937,-134.256 134.182,-134.256 73.9973,0 134.192,60.1937 134.192,134.182 0,73.9973 -60.1949,134.267 -134.192,134.267z"/>
  </g>
  <g id="_251992448">
   <path id="_251992640" class="fil3" d="M800.366 1792l447.29 0c4.01339,-88.3961 -26.6941,-164.04 -109.187,-211.674l-4.20473 -2.42008 -3.41811 3.51378c-28.2343,29.5937 -66.1725,45.9449 -106.872,45.9449 -40.6784,0 -78.6166,-16.3512 -106.851,-45.9449l-3.35551 -3.51378 -4.27796 2.42008c-82.4079,47.6658 -113.275,123.278 -109.123,211.674z"/>
   <path id="_251992520" class="fil3" d="M1024 1597.17c-73.9879,0 -134.182,-60.2056 -134.182,-134.192 0,-74.0623 60.1937,-134.256 134.182,-134.256 73.9973,0 134.192,60.1937 134.192,134.182 0,73.9973 -60.1949,134.267 -134.192,134.267z"/>
  </g>
 </g>
</svg>
